Coordinates
version=1
nRows=24
nColumns=19
inDegrees=yes

Units are S.I. units (second, meters, Newtons, ...)
If the header above contains a line with 'inDegrees', this indicates whether rotational values are in degrees (yes) or radians (no).

endheader
time	pelvis_tilt	pelvis_list	pelvis_rotation	pelvis_tx	pelvis_ty	pelvis_tz	hip_flexion_r	hip_adduction_r	hip_rotation_r	knee_angle_r	knee_angle_r_beta	ankle_angle_r	hip_flexion_l	hip_adduction_l	hip_rotation_l	knee_angle_l	knee_angle_l_beta	ankle_angle_l
     11.43333333	     -3.73098103	     -6.70533789	     -2.86189575	      2.24207021	      0.95538391	      1.00172459	     24.21295012	      8.71675833	     -6.78905233	     16.56273083	      0.28907419	     -1.36532949	     -8.66621382	     -9.06830007	     -8.31037402	     71.86438597	      1.25427015	    -23.34900981
     11.44000000	     -2.73650355	     -7.38232859	     -3.31512687	      2.24138585	      0.95078556	      1.00217542	     23.61124733	      9.34067488	     -7.32257643	     19.63542331	      0.34270279	      0.05645220	     -8.51230868	     -9.84180367	     -8.41865109	     75.23282268	      1.31306046	    -22.70583402
     11.44666667	     -2.81860177	     -7.50042849	     -3.76666755	      2.24011760	      0.94492584	      1.00252693	     24.41658510	      9.34574221	     -7.68765547	     23.36134817	      0.40773244	      1.82918687	     -6.86111657	     -9.95945736	     -8.04358038	     78.77297180	      1.37484772	    -22.05075031
     11.45333333	     -2.03574093	     -7.91054437	     -4.16227284	      2.23885676	      0.94001113	      1.00267458	     24.02790870	      9.66028624	     -7.76883442	     26.80121439	      0.46776943	      3.90341978	     -6.21435523	    -10.38163419	     -7.85270767	     82.05425694	      1.43211695	    -21.23213998
     11.46000000	     -2.35822338	     -7.65241206	     -4.57568967	      2.23707645	      0.93407146	      1.00274926	     24.94130814	      9.34946496	     -7.50197447	     30.53086078	      0.53286404	      6.24829524	     -4.02182889	    -10.00889580	     -7.21572002	     85.42787530	      1.49099770	    -20.34017287
     11.46666667	     -1.70117997	     -7.81437987	     -4.86759160	      2.23533024	      0.92952753	      1.00269043	     24.40902992	      9.48402170	     -7.07980419	     33.64556082	      0.58722581	      8.66113639	     -2.96427839	    -10.13696621	     -6.79044406	     88.49235528	      1.54448296	    -19.30787221
     11.47333333	     -2.02609299	     -7.29320039	     -5.17677934	      2.23311461	      0.92431819	      1.00255226	     24.97576457	      8.99726281	     -6.37564582	     36.84372101	      0.64304424	     11.24501823	     -0.51177519	     -9.42752927	     -6.02097349	     91.54145353	      1.59769977	    -18.28580579
     11.48000000	     -2.02613820	     -7.00935920	     -5.37835423	      2.23091664	      0.92002394	      1.00236349	     24.84274540	      8.76796110	     -5.65545640	     39.43879390	      0.68833681	     13.73020227	      1.61318835	     -9.05825260	     -5.33454740	     94.34846767	      1.64669140	    -17.19534093
     11.48666667	     -2.02490965	     -6.67371022	     -5.50219172	      2.22863163	      0.91636496	      1.00213125	     24.44658563	      8.48603305	     -4.91775370	     41.55838091	      0.72533058	     16.10253720	      3.83332344	     -8.64026599	     -4.61072152	     96.91721009	      1.69152442	    -16.06202878
     11.49333333	     -2.04781777	     -6.27255025	     -5.53254455	      2.22633819	      0.91337814	      1.00184978	     23.81421032	      8.11032024	     -4.22309225	     43.19782043	      0.75394420	     18.33336115	      6.16820560	     -8.16342356	     -3.85611249	     99.21566283	      1.73163999	    -14.96130057
     11.50000000	     -1.60811414	     -6.09297286	     -5.55657132	      2.22426576	      0.91164953	      1.00169699	     22.30362310	      7.95328900	     -3.52022767	     44.17725750	      0.77103860	     20.38059936	      7.92747186	     -8.04112859	     -3.31012432	    101.13127438	      1.76507371	    -13.89078146
     11.50666667	     -1.95539868	     -5.37082512	     -5.27979905	      2.22205400	      0.90972953	      1.00113371	     21.59422395	      7.09673383	     -3.15751380	     44.99310331	      0.78527779	     22.15417987	     10.82332110	     -7.11720893	     -2.32162500	    102.85512084	      1.79516051	    -12.88584163
     11.51333333	     -2.13599512	     -4.86896906	     -5.11443539	      2.22014799	      0.90870650	      1.00090676	     20.36844900	      6.53723712	     -2.69422734	     45.22136640	      0.78926174	     23.66938622	     13.40827071	     -6.60483080	     -1.65547989	    104.20135140	      1.81865667	    -11.93090970
     11.52000000	     -1.98730889	     -4.45427138	     -5.09388235	      2.21852879	      0.90880009	      1.00099752	     18.49903621	      6.15199148	     -1.96904220	     44.92934804	      0.78416505	     24.84065835	     15.49255896	     -6.29055213	     -1.29620141	    105.10328039	      1.83439830	    -11.06465353
     11.52666667	     -2.14831764	     -3.75659994	     -4.58548134	      2.21725613	      0.90911643	      1.00061067	     16.83725956	      5.20986622	     -2.01307902	     44.39097163	      0.77476861	     25.81490353	     18.00545481	     -5.50313585	     -0.57458756	    105.70344026	      1.84487306	    -10.18656832
     11.53333333	     -2.28003434	     -3.16821453	     -4.50854921	      2.21630485	      0.91017862	      1.00087291	     14.92959299	      4.61654747	     -1.46218567	     43.45572921	      0.75844555	     26.33626416	     20.25138547	     -5.08683724	     -0.42437289	    105.88036417	      1.84796097	     -9.41450575
     11.54000000	     -2.50276645	     -2.48589336	     -4.33097675	      2.21569353	      0.91171504	      1.00115192	     12.98908001	      3.89066200	     -1.07060296	     42.25799537	      0.73754115	     26.51335945	     22.51077735	     -4.57344363	     -0.32239848	    105.70948973	      1.84497865	     -8.68195286
     11.54666667	     -2.78430978	     -1.74554492	     -4.10934911	      2.21539171	      0.91372940	      1.00140810	     11.01295835	      3.08657253	     -0.78296868	     40.85486160	      0.71305185	     26.28582483	     24.71747862	     -3.99609028	     -0.30211176	    105.19293963	      1.83596315	     -8.00556734
     11.55333333	     -2.52692405	     -0.86558240	     -3.49268020	      2.21556814	      0.91690494	      1.00120052	      8.29336190	      1.97864949	     -1.06632287	     39.15163826	      0.68332500	     25.65452164	     26.21035500	     -3.03240540	     -0.11069241	    104.26207312	      1.81971646	     -7.36514553
     11.56000000	     -2.42824334	     -0.01652550	     -3.32741140	      2.21608686	      0.92040104	      1.00160876	      5.69308354	      1.06099796	     -0.85293868	     37.28667571	      0.65077526	     24.50901964	     27.61458328	     -2.40363996	     -0.45498208	    102.99375776	      1.79758018	     -6.70447611
     11.56666667	     -2.42302162	      0.88002254	     -3.18842480	      2.21693200	      0.92418461	      1.00198703	      3.18593737	      0.07517821	     -0.76168699	     35.34192111	      0.61683289	     22.87877589	     28.95982382	     -1.76954531	     -0.94681971	    101.42780667	      1.77024918	     -6.04733854
     11.57333333	     -2.92119591	      1.79284630	     -3.08696375	      2.21791903	      0.92776744	      1.00229606	      1.29696954	     -0.88922668	     -0.63805833	     33.44646950	      0.58375102	     20.72164396	     30.75448804	     -1.15954164	     -1.53525923	     99.65191399	      1.73925401	     -5.49101006
     11.58000000	     -2.36984139	      2.74818743	     -3.01152127	      2.21950194	      0.93282551	      1.00264018	     -1.85176798	     -2.02652785	     -0.92884054	     31.23653176	      0.54518033	     18.15246435	     31.10447893	     -0.50661670	     -2.29669385	     97.44899475	      1.70080581	     -4.77555886
     11.58666667	     -2.59623588	      3.72629516	     -2.86965565	      2.22104681	      0.93717757	      1.00270447	     -3.95734693	     -3.16226461	     -1.38829862	     29.30583268	      0.51148327	     15.07545485	     32.25995434	      0.21851212	     -3.00949485	     95.11209814	      1.66001927	     -4.15053821
